# xmcd
#
# Track frame offsets:
#	150
#	11122
#	23695
#	34670
#	45642
#	57727
#	71112
#	82322
#	95665
#	107980
#	122370
#	133680
#	145452
#	158000
#	170842
#	183977
#	196762
#	208665
#	222802
#	236115
#	245817
#	256307
#
# Disc length: 3591
#
# Revision: 2
# Processed by: cddbd v1.5.1PL0 Copyright (c) Steve Scherf et al.
# Submitted via: ExactAudioCopy v0.95a3
# Normalized: r1:DSETVAR1
#
DISCID=4f0e0516
DTITLE=Various Artist - Rhythm and Blues - 1955
DYEAR=1955
DGENRE=
TTITLE0=Little Richard - Tutti-Frutti
TTITLE1=Joe Turner - Flip Flop And Fly
TTITLE2=Fats Domino - Ain't That A Shame
TTITLE3=Nappy Brown - Don't Be Angry
TTITLE4=The Drifters - Adorable
TTITLE5=The Penguins - Earth Angel
TTITLE6=Bo Diddley - Bo Diddley
TTITLE7=Muddy Waters - Mannish Boy
TTITLE8=Smiley Lewis - I Hear You Knocking
TTITLE9=Lowell Fulson - Reconsider Baby
TTITLE10=Johnny Ace - Pledging My Love
TTITLE11=The El Dorados - At My Front Door (Crazy Little Mama Song)
TTITLE12=Clyde McPhatter And The Drifters - What'cha Gonna Do
TTITLE13=Shirley And Lee - Feel So Good
TTITLE14=The Turbans - When You Dance
TTITLE15=Gene And Eunice - Ko Ko Mo (I Love You So)
TTITLE16=The Platters - Only You
TTITLE17=LaVern Baker - Tweedlee Dee
TTITLE18=Little Willie John - All Around The World
TTITLE19=The Five Keys - Ling, Ting, Tong
TTITLE20=The Nutmegs - Story Untold
TTITLE21=Al Hibbler - Unchained Melody
EXTD=Time Life Music RHD-17
EXTT0=
EXTT1=
EXTT2=
EXTT3=
EXTT4=
EXTT5=
EXTT6=
EXTT7=
EXTT8=
EXTT9=
EXTT10=
EXTT11=
EXTT12=
EXTT13=
EXTT14=
EXTT15=
EXTT16=
EXTT17=
EXTT18=
EXTT19=
EXTT20=
EXTT21=
PLAYORDER=
